# xmcd
#
# Track frame offsets:
#	150
#	14623
#	25599
#	35879
#	51569
#	59522
#	70071
#	79446
#	94284
#	106690
#	118087
#	121599
#	126745
#	133833
#	143683
#	157113
#	177489
#	184648
#	193527
#	203796
#	211527
#	217736
#	226858
#	232449
#	245129
#	261136
#	269196
#	283150
#	298676
#
# Disc length: 4192 seconds
#
# Revision: 4
# Processed by: cddbd v1.5.1PL0 Copyright (c) Steve Scherf et al.
# Submitted via: EasyCDDAExtractor 8.2.1.1
#
DISCID=cf105e1d
DTITLE=яелос амтымгс - яелос амтымгс LIVE 2004 CD1
DYEAR=2004
DGENRE=казйа
TTITLE0=ока дийа соу
TTITLE1=сталатгсе тоу яокоциоу тоус деийтес
TTITLE2=поиа мувта се ейкеье
TTITLE3=ам се аямгхы ацапг лоу
TTITLE4=нглеяымеи йуяиайг
TTITLE5=то ацакла
TTITLE6=дыдейа ламтокима
TTITLE7=епежте бахиа сиыпг
TTITLE8=бяевеи жытиа стг стяата лоу
TTITLE9=то жеццаяи памы хее лоу
TTITLE10=ейкаьа втес
TTITLE11=йалаяоука лиа стакиа
TTITLE12=лг тоу ликате тоу паидиоу
TTITLE13=евы стемавыяг йаядиа
TTITLE14=йи есу ха жуцеис
TTITLE15=ха ле хулгхеис
TTITLE16=о тяекос
TTITLE17=пес пыс ле амталысес
TTITLE18=дем то лпояеис
TTITLE19=лиа жояа хулалаи
TTITLE20=лиа ацапг циа то йакойаияи
TTITLE21=йи ам пеяпаты
TTITLE22=гяхес евтес
TTITLE23=лиа жояа ломава жтамеи
TTITLE24=пяосыпийа
TTITLE25=лиа йуяиайг
TTITLE26=сгм акама
TTITLE27=амхяыпои ломавои
TTITLE28=жтаиле йаи ои дуо
EXTD=
EXTT0=
EXTT1=
EXTT2=
EXTT3=
EXTT4=
EXTT5=
EXTT6=
EXTT7=
EXTT8=
EXTT9=
EXTT10=
EXTT11=
EXTT12=
EXTT13=
EXTT14=
EXTT15=
EXTT16=
EXTT17=
EXTT18=
EXTT19=
EXTT20=
EXTT21=
EXTT22=
EXTT23=
EXTT24=
EXTT25=
EXTT26=
EXTT27=
EXTT28=
PLAYORDER=
